<svg xmlns="http://www.w3.org/2000/svg" viewBox="0 0 560 64" fill="none">
  <g stroke="#a68b4b" stroke-width="1.25" stroke-linecap="square">
    <path d="M12 32h160M388 32h160"/>
    <path d="M20 26h28M20 38h28M512 26h28M512 38h28" stroke-width="1"/>
    <!-- central sunburst fan -->
    <path d="M280 48c0-20 14-36 28-36s28 16 28 36" stroke-width="1.3"/>
    <path d="M288 48c2-14 10-24 20-24s18 10 20 24"/>
    <path d="M308 14v18M296 20l12 12M320 20l-12 12M290 30h36"/>
    <circle cx="308" cy="40" r="3" fill="#a68b4b" stroke="none"/>
    <path d="M250 32h22M344 32h22"/>
    <path d="M240 32l6-5 6 5-6 5-6-5z" fill="#a68b4b" stroke="none"/>
    <path d="M368 32l6-5 6 5-6 5-6-5z" fill="#a68b4b" stroke="none"/>
    <path d="M172 32l8-4M380 32l8 4M172 32l8 4M380 32l8-4" stroke-width="1"/>
  </g>
</svg>
